<svg width="829" height="339" viewBox="0 0 829 339" fill="none" xmlns="http://www.w3.org/2000/svg">
<path opacity="0.1" d="M744.411 7.36296C744.26 7.96996 744.256 8.62196 744.384 9.31096C744.384 9.31096 746.449 23.019 744.105 29.12L644.43 288.291L644.438 288.294C637.325 307.33 646.857 328.583 665.867 335.895C684.876 343.206 706.192 333.816 713.668 314.919L713.677 314.923L813.352 55.751C815.301 50.681 826.416 40.859 826.416 40.859C826.974 40.434 827.406 39.946 827.701 39.395L827.75 39.294C827.804 39.186 827.866 39.082 827.909 38.969C830.479 32.286 813.901 19.69 790.881 10.837C767.86 1.98296 747.114 0.22396 744.544 6.90696C744.5 7.01996 744.476 7.13796 744.443 7.25496L744.411 7.36296Z" fill="black"/>
<path d="M741.53 5.15996C741.378 5.76696 741.374 6.41896 741.503 7.10796C741.503 7.10796 743.568 20.816 741.223 26.917L641.548 286.088L641.557 286.091C634.444 305.127 643.976 326.38 662.986 333.692C681.994 341.003 703.311 331.613 710.787 312.716L710.796 312.72L810.471 53.548C812.419 48.478 823.535 38.656 823.535 38.656C824.093 38.231 824.525 37.744 824.82 37.192L824.868 37.091C824.922 36.983 824.984 36.879 825.027 36.766C827.597 30.083 811.019 17.487 788 8.63396C764.979 -0.220042 744.233 -1.97904 741.663 4.70396C741.619 4.81696 741.595 4.93496 741.562 5.05196L741.53 5.15996Z" fill="url(#paint0_linear)"/>
<path d="M772.797 122.407L700.917 309.307L700.964 309.325C695.662 322.721 680.235 329.69 666.548 324.427C652.861 319.164 645.454 303.412 650.495 289.915L696.425 170.489C696.425 170.489 702.161 161.236 713.424 154.653C724.687 148.07 733.975 149.46 746.482 143.901C758.987 138.341 772.797 122.407 772.797 122.407Z" fill="url(#paint1_linear)"/>
<path d="M780.507 28.244C794.795 33.7394 807.549 35.1479 808.995 31.3899C810.44 27.6319 800.029 20.1304 785.741 14.635C771.453 9.13953 758.698 7.73104 757.253 11.4891C755.807 15.2471 766.219 22.7485 780.507 28.244Z" fill="#333333"/>
<path opacity="0.3" d="M741.503 7.10693C741.503 7.10693 743.538 20.8939 741.223 26.9159L641.548 286.087L641.557 286.09C634.444 305.126 643.976 326.379 662.986 333.691C666.285 334.96 669.652 335.713 673.006 336.015C660.193 326.375 654.694 309.135 660.573 293.404L660.564 293.401L758.261 39.3699C758.261 39.3709 744.962 26.8839 741.503 7.10693Z" fill="white"/>
<path opacity="0.5" d="M709.412 177.182C711.007 177.182 712.3 175.889 712.3 174.294C712.3 172.699 711.007 171.406 709.412 171.406C707.817 171.406 706.524 172.699 706.524 174.294C706.524 175.889 707.817 177.182 709.412 177.182Z" fill="white"/>
<path opacity="0.5" d="M728.344 199.589C730.749 199.589 732.698 197.64 732.698 195.235C732.698 192.83 730.749 190.881 728.344 190.881C725.939 190.881 723.99 192.83 723.99 195.235C723.99 197.64 725.939 199.589 728.344 199.589Z" fill="white"/>
<path opacity="0.5" d="M699.443 228.305C703.954 228.305 707.61 224.648 707.61 220.138C707.61 215.627 703.954 211.971 699.443 211.971C694.932 211.971 691.276 215.627 691.276 220.138C691.276 224.648 694.932 228.305 699.443 228.305Z" fill="white"/>
<path opacity="0.5" d="M686.219 239.595C688.624 239.595 690.573 237.646 690.573 235.241C690.573 232.836 688.624 230.887 686.219 230.887C683.814 230.887 681.865 232.836 681.865 235.241C681.865 237.646 683.814 239.595 686.219 239.595Z" fill="white"/>
<path opacity="0.5" d="M703.563 270.43C705.158 270.43 706.451 269.137 706.451 267.542C706.451 265.947 705.158 264.654 703.563 264.654C701.968 264.654 700.675 265.947 700.675 267.542C700.675 269.137 701.968 270.43 703.563 270.43Z" fill="white"/>
<g opacity="0.1">
<g opacity="0.1">
<path opacity="0.1" d="M195.384 158.366C199.799 161.894 207.745 159.836 213.043 153.955C218.635 147.78 219.518 139.84 215.104 136.311C210.688 132.782 202.742 134.841 197.444 141.016C191.852 147.191 190.969 154.837 195.384 158.366ZM182.434 169.835C181.257 169.835 179.197 171.893 180.962 172.775C183.316 173.657 184.494 175.714 184.494 178.656C182.434 190.713 167.424 204.533 161.537 209.238C160.065 210.709 162.126 213.943 163.597 212.767C166.835 210.121 173.604 204.827 179.197 197.769C170.073 218.06 152.413 244.231 145.644 253.347C119.156 290.104 78.833 323.921 51.167 323.921C29.093 323.921 10.256 308.924 6.13599 286.869C5.84199 284.516 2.60399 283.929 3.19299 287.163C8.19599 317.452 31.448 329.214 59.703 329.214C90.607 329.214 126.881 306.822 146.829 283.908C179.108 246.83 200.094 204.238 194.502 180.126C192.147 171.011 185.966 169.54 182.434 169.835ZM381.013 250.465C389.548 248.406 396.612 243.63 396.612 236.243C396.612 235.505 395.14 235.505 395.14 236.243C395.14 240.676 390.137 244.29 384.545 245.172C371.3 247.231 345.106 231.698 332.744 215.818C345.989 220.818 373.066 213.493 385.722 204.377C397.495 195.85 402.204 186.453 403.087 178.808C404.558 166.162 390.725 158.819 371.594 166.17C359.233 171.169 344.517 182.052 329.212 202.342C345.4 175.583 377.186 132.063 408.384 104.128C446.351 70.311 468.426 76.781 434.284 112.657C420.157 127.36 393.668 146.474 375.42 154.708C369.828 157.061 372.477 160.295 376.597 158.531C396.022 150.003 421.923 132.36 437.521 117.656C483.73 73.253 445.173 39.73 393.962 86.78C359.232 118.833 336.569 152.355 316.85 195.876C310.08 204.109 305.077 210.873 298.896 216.166C298.167 216.81 297.583 217.437 297.102 218.036C280.105 232.601 253.424 252.264 236.844 252.5C225.071 252.794 220.068 243.973 222.128 232.504C225.365 214.566 243.908 193.394 259.801 186.043C280.404 176.633 292.47 194.864 265.393 209.567C255.091 214.86 242.73 217.8 237.726 217.8C231.839 217.8 232.428 220.153 237.432 220.446C245.673 220.74 258.918 217.212 267.747 213.094C295.413 199.862 297.179 175.16 267.158 174.279C234.489 173.102 195.344 201.038 195.638 236.031C195.932 251.911 208.588 260.438 225.953 260.438C254.831 260.176 280.661 238.158 301.78 218.794C304.812 216.273 307.741 213.501 310.668 210.577C303.31 229.396 299.484 246.746 301.25 259.685C302.428 269.095 307.726 273.505 311.846 277.035C312.729 277.623 314.495 277.035 313.317 275.27C307.136 267.918 308.902 246.104 317.438 224.932C324.503 239.05 352.169 256.935 381.013 250.465ZM346.283 189.112C380.13 158.824 393.374 185.878 371.889 202.344C360.704 210.872 338.63 217.342 331.567 213.225L330.095 212.343C329.212 210.872 328.329 209.402 327.741 207.932C333.333 201.169 339.808 194.994 346.283 189.112ZM534.137 154.791C547.676 156.262 542.083 139.794 528.251 143.911C522.07 145.675 516.184 157.437 511.769 167.73C498.23 188.02 475.567 215.662 459.674 230.071C445.546 242.127 432.596 245.362 448.489 222.718C454.964 213.603 463.205 203.899 467.915 194.195C479.099 169.788 455.259 158.908 436.128 173.611C424.944 182.138 409.934 199.782 398.161 209.486C394.923 212.132 395.806 215.956 399.044 213.309C408.461 205.663 424.944 188.314 439.071 178.022C450.843 168.906 455.553 174.787 448.783 182.432C439.365 193.313 422.883 212.132 418.763 224.189C412.876 242.127 419.94 250.066 431.713 250.066C447.901 250.066 472.035 224.777 488.223 204.781C493.521 198.018 499.408 190.078 504.411 182.432C490.284 209.78 475.567 237.421 457.32 262.416C431.42 297.704 399.045 324.169 368.435 324.169C346.361 324.169 327.23 309.172 323.109 287.118C322.815 284.764 319.872 284.177 320.166 287.411C325.169 317.7 348.421 329.462 376.676 329.462C407.58 329.462 437.306 311.524 458.203 289.47C500.291 245.067 505.294 195.077 518.245 167.141C524.13 154.791 529.722 154.203 534.137 154.791ZM705.227 111.976C711.408 101.39 711.114 93.156 696.693 93.156C685.802 93.45 666.083 101.095 656.959 108.153C654.898 110.212 655.781 111.388 658.431 110.212C660.197 109.624 662.257 108.447 664.318 107.566C674.619 101.979 670.499 113.741 668.143 118.152C655.782 139.618 634.002 169.906 622.524 184.903C617.025 192.287 610.825 199.662 604.857 205.932C593.803 216.417 571.974 234.994 555.457 241.245C501.891 261.241 570.173 170.083 575.766 162.731C588.421 146.851 616.677 119.21 625.211 105.389C631.393 94.803 631.098 86.569 616.677 86.569C605.786 86.863 586.068 94.508 576.944 101.566C574.883 103.625 575.766 104.8 578.415 103.625C580.182 103.037 582.241 101.86 584.302 100.979C594.603 95.392 590.483 107.154 588.128 111.565C575.767 133.031 553.986 163.32 542.508 178.317C533.09 190.962 521.612 203.606 512.781 210.664C509.25 213.604 511.309 216.251 514.842 213.898C518.079 211.839 522.788 207.134 528.086 201.547C518.374 220.955 510.427 248.303 536.033 251.537C557.853 254.52 583.797 232.252 600.573 215.759C602.422 214.009 604.45 211.953 606.593 209.717C607.097 209.202 607.59 208.698 608.066 208.21C598.371 227.613 590.479 254.894 616.05 258.124C644.011 261.946 678.741 224.307 692.279 210.485C694.928 207.839 694.045 203.428 689.631 207.839C681.684 216.073 654.901 240.48 635.476 247.832C581.91 267.827 650.192 176.669 655.784 169.317C668.437 153.438 696.692 125.796 705.227 111.976Z" fill="black"/>
</g>
</g>
<path d="M192.558 155.539C196.973 159.068 204.919 157.01 210.217 151.128C215.809 144.953 216.692 137.013 212.278 133.484C207.863 129.955 199.916 132.014 194.618 138.189C189.025 144.365 188.143 152.011 192.558 155.539ZM179.607 167.008C178.43 167.008 176.37 169.067 178.135 169.948C180.489 170.83 181.667 172.888 181.667 175.83C179.607 187.886 164.597 201.707 158.71 206.412C157.238 207.882 159.299 211.117 160.77 209.94C164.008 207.294 170.777 202.001 176.37 194.943C167.246 215.233 149.586 241.405 142.817 250.52C116.329 287.278 76.006 321.094 48.34 321.094C26.266 321.094 7.42899 306.098 3.30899 284.043C3.01499 281.689 -0.223004 281.103 0.365996 284.337C5.369 314.625 28.621 326.387 56.876 326.387C87.78 326.387 124.054 303.995 144.002 281.081C176.281 244.003 197.267 201.412 191.675 177.299C189.32 168.184 183.14 166.714 179.607 167.008ZM378.186 247.639C386.721 245.58 393.785 240.804 393.785 233.417C393.785 232.678 392.313 232.678 392.313 233.417C392.313 237.849 387.31 241.463 381.718 242.345C368.473 244.404 342.279 228.872 329.917 212.992C343.162 217.991 370.239 210.666 382.895 201.551C394.668 193.023 399.377 183.626 400.26 175.981C401.731 163.336 387.898 155.992 368.767 163.343C356.406 168.342 341.69 179.226 326.385 199.516C342.573 172.756 374.359 129.237 405.557 101.301C443.524 67.484 465.599 73.954 431.458 109.83C417.33 124.533 390.841 143.647 372.593 151.881C367.001 154.234 369.65 157.468 373.77 155.703C393.196 147.176 419.096 129.532 434.695 114.829C480.903 70.426 442.347 36.903 391.135 83.953C356.405 116.006 333.742 149.528 314.023 193.05C307.253 201.283 302.25 208.047 296.069 213.34C295.34 213.983 294.756 214.61 294.275 215.209C277.278 229.775 250.598 249.437 234.017 249.674C222.244 249.968 217.241 241.146 219.301 229.678C222.538 211.74 241.081 190.568 256.974 183.216C277.577 173.806 289.643 192.037 262.566 206.74C252.265 212.034 239.903 214.974 234.9 214.974C229.014 214.974 229.602 217.327 234.606 217.62C242.847 217.914 256.092 214.385 264.921 210.267C292.587 197.035 294.353 172.333 264.332 171.452C231.662 170.276 192.518 198.212 192.812 233.205C193.106 249.084 205.762 257.612 223.127 257.612C252.005 257.349 277.835 235.331 298.953 215.968C301.985 213.446 304.914 210.675 307.841 207.75C300.483 226.57 296.657 243.92 298.423 256.858C299.601 266.268 304.899 270.679 309.019 274.208C309.902 274.796 311.668 274.208 310.49 272.444C304.309 265.092 306.075 243.278 314.611 222.106C321.676 236.223 349.343 254.107 378.186 247.639ZM343.457 186.286C377.304 155.998 390.548 183.052 369.063 199.518C357.879 208.046 335.805 214.515 328.741 210.398L327.269 209.516C326.386 208.046 325.503 206.576 324.915 205.106C330.506 198.343 336.981 192.167 343.457 186.286ZM531.311 151.965C544.849 153.435 539.257 136.967 525.424 141.085C519.243 142.849 513.357 154.612 508.942 164.904C495.404 185.194 472.741 212.836 456.847 227.245C442.72 239.302 429.77 242.536 445.663 219.893C452.138 210.777 460.379 201.073 465.088 191.37C476.272 166.963 452.432 156.083 433.301 170.786C422.117 179.313 407.107 196.957 395.334 206.661C392.096 209.307 392.979 213.13 396.217 210.483C405.635 202.837 422.117 185.488 436.244 175.196C448.017 166.08 452.726 171.962 445.957 179.607C436.539 190.487 420.057 209.307 415.936 221.364C410.049 239.302 417.113 247.241 428.885 247.241C445.073 247.241 469.207 221.952 485.395 201.956C490.693 195.192 496.58 187.253 501.583 179.607C487.455 206.955 472.739 234.596 454.491 259.591C428.592 294.878 396.216 321.343 365.606 321.343C343.532 321.343 324.401 306.347 320.281 284.292C319.986 281.939 317.043 281.352 317.337 284.586C322.34 314.874 345.592 326.636 373.847 326.636C404.751 326.636 434.477 308.698 455.374 286.645C497.462 242.242 502.466 192.251 515.416 164.316C521.303 151.965 526.896 151.376 531.311 151.965ZM702.4 109.149C708.581 98.563 708.286 90.329 693.865 90.329C682.975 90.623 663.256 98.268 654.132 105.326C652.071 107.385 652.954 108.561 655.604 107.385C657.37 106.797 659.43 105.621 661.49 104.739C671.792 99.152 667.672 110.914 665.316 115.325C652.955 136.791 631.174 167.08 619.696 182.077C614.197 189.46 607.997 196.835 602.029 203.106C590.976 213.591 569.146 232.168 552.63 238.419C499.063 258.415 567.346 167.256 572.938 159.904C585.594 144.025 613.849 116.383 622.384 102.562C628.565 91.976 628.27 83.742 613.849 83.742C602.959 84.036 583.24 91.681 574.116 98.739C572.055 100.798 572.938 101.973 575.588 100.798C577.354 100.21 579.414 99.033 581.475 98.152C591.776 92.565 587.656 104.327 585.3 108.738C572.939 130.204 551.158 160.492 539.681 175.489C530.263 188.134 518.784 200.778 509.953 207.836C506.422 210.776 508.482 213.424 512.015 211.071C515.252 209.011 519.961 204.307 525.259 198.719C515.546 218.127 507.6 245.475 533.205 248.71C555.025 251.692 580.969 229.424 597.746 212.932C599.595 211.181 601.623 209.126 603.766 206.89C604.27 206.374 604.762 205.871 605.238 205.382C595.543 224.786 587.651 252.066 613.223 255.296C641.184 259.118 675.913 221.479 689.452 207.658C692.1 205.012 691.218 200.6 686.803 205.012C678.857 213.245 652.074 237.653 632.649 245.004C579.082 264.999 647.365 173.841 652.957 166.489C665.61 150.611 693.865 122.97 702.4 109.149Z" fill="url(#paint2_linear)"/>
<g opacity="0.75">
<g opacity="0.75">
<path opacity="0.75" d="M192.558 155.539C196.973 159.068 204.919 157.01 210.217 151.128C215.809 144.953 216.692 137.013 212.278 133.484C207.863 129.955 199.916 132.014 194.618 138.189C189.025 144.365 188.143 152.011 192.558 155.539ZM179.607 167.008C178.43 167.008 176.37 169.067 178.135 169.948C180.489 170.83 181.667 172.888 181.667 175.83C179.607 187.886 164.597 201.707 158.71 206.412C157.238 207.882 159.299 211.117 160.77 209.94C164.008 207.294 170.777 202.001 176.37 194.943C167.246 215.233 149.586 241.405 142.817 250.52C116.329 287.278 76.006 321.094 48.34 321.094C26.266 321.094 7.42899 306.098 3.30899 284.043C3.01499 281.689 -0.223004 281.103 0.365996 284.337C5.369 314.625 28.621 326.387 56.876 326.387C87.78 326.387 124.054 303.995 144.002 281.081C176.281 244.003 197.267 201.412 191.675 177.299C189.32 168.184 183.14 166.714 179.607 167.008ZM378.186 247.639C386.721 245.58 393.785 240.804 393.785 233.417C393.785 232.678 392.313 232.678 392.313 233.417C392.313 237.849 387.31 241.463 381.718 242.345C368.473 244.404 342.279 228.872 329.917 212.992C343.162 217.991 370.239 210.666 382.895 201.551C394.668 193.023 399.377 183.626 400.26 175.981C401.731 163.336 387.898 155.992 368.767 163.343C356.406 168.342 341.69 179.226 326.385 199.516C342.573 172.756 374.359 129.237 405.557 101.301C443.524 67.484 465.599 73.954 431.458 109.83C417.33 124.533 390.841 143.647 372.593 151.881C367.001 154.234 369.65 157.468 373.77 155.703C393.196 147.176 419.096 129.532 434.695 114.829C480.903 70.426 442.347 36.903 391.135 83.953C356.405 116.006 333.742 149.528 314.023 193.05C307.253 201.283 302.25 208.047 296.069 213.34C295.34 213.983 294.756 214.61 294.275 215.209C277.278 229.775 250.598 249.437 234.017 249.674C222.244 249.968 217.241 241.146 219.301 229.678C222.538 211.74 241.081 190.568 256.974 183.216C277.577 173.806 289.643 192.037 262.566 206.74C252.265 212.034 239.903 214.974 234.9 214.974C229.014 214.974 229.602 217.327 234.606 217.62C242.847 217.914 256.092 214.385 264.921 210.267C292.587 197.035 294.353 172.333 264.332 171.452C231.662 170.276 192.518 198.212 192.812 233.205C193.106 249.084 205.762 257.612 223.127 257.612C252.005 257.349 277.835 235.331 298.953 215.968C301.985 213.446 304.914 210.675 307.841 207.75C300.483 226.57 296.657 243.92 298.423 256.858C299.601 266.268 304.899 270.679 309.019 274.208C309.902 274.796 311.668 274.208 310.49 272.444C304.309 265.092 306.075 243.278 314.611 222.106C321.676 236.223 349.343 254.107 378.186 247.639ZM343.457 186.286C377.304 155.998 390.548 183.052 369.063 199.518C357.879 208.046 335.805 214.515 328.741 210.398L327.269 209.516C326.386 208.046 325.503 206.576 324.915 205.106C330.506 198.343 336.981 192.167 343.457 186.286ZM531.311 151.965C544.849 153.435 539.257 136.967 525.424 141.085C519.243 142.849 513.357 154.612 508.942 164.904C495.404 185.194 472.741 212.836 456.847 227.245C442.72 239.302 429.77 242.536 445.663 219.893C452.138 210.777 460.379 201.073 465.088 191.37C476.272 166.963 452.432 156.083 433.301 170.786C422.117 179.313 407.107 196.957 395.334 206.661C392.096 209.307 392.979 213.13 396.217 210.483C405.635 202.837 422.117 185.488 436.244 175.196C448.017 166.08 452.726 171.962 445.957 179.607C436.539 190.487 420.057 209.307 415.936 221.364C410.049 239.302 417.113 247.241 428.885 247.241C445.073 247.241 469.207 221.952 485.395 201.956C490.693 195.192 496.58 187.253 501.583 179.607C487.455 206.955 472.739 234.596 454.491 259.591C428.592 294.878 396.216 321.343 365.606 321.343C343.532 321.343 324.401 306.347 320.281 284.292C319.986 281.939 317.043 281.352 317.337 284.586C322.34 314.874 345.592 326.636 373.847 326.636C404.751 326.636 434.477 308.698 455.374 286.645C497.462 242.242 502.466 192.251 515.416 164.316C521.303 151.965 526.896 151.376 531.311 151.965ZM702.4 109.149C708.581 98.563 708.286 90.329 693.865 90.329C682.975 90.623 663.256 98.268 654.132 105.326C652.071 107.385 652.954 108.561 655.604 107.385C657.37 106.797 659.43 105.621 661.49 104.739C671.792 99.152 667.672 110.914 665.316 115.325C652.955 136.791 631.174 167.08 619.696 182.077C614.197 189.46 607.997 196.835 602.029 203.106C590.976 213.591 569.146 232.168 552.63 238.419C499.063 258.415 567.346 167.256 572.938 159.904C585.594 144.025 613.849 116.383 622.384 102.562C628.565 91.976 628.27 83.742 613.849 83.742C602.959 84.036 583.24 91.681 574.116 98.739C572.055 100.798 572.938 101.973 575.588 100.798C577.354 100.21 579.414 99.033 581.475 98.152C591.776 92.565 587.656 104.327 585.3 108.738C572.939 130.204 551.158 160.492 539.681 175.489C530.263 188.134 518.784 200.778 509.953 207.836C506.422 210.776 508.482 213.424 512.015 211.071C515.252 209.011 519.961 204.307 525.259 198.719C515.546 218.127 507.6 245.475 533.205 248.71C555.025 251.692 580.969 229.424 597.746 212.932C599.595 211.181 601.623 209.126 603.766 206.89C604.27 206.374 604.762 205.871 605.238 205.382C595.543 224.786 587.651 252.066 613.223 255.296C641.184 259.118 675.913 221.479 689.452 207.658C692.1 205.012 691.218 200.6 686.803 205.012C678.857 213.245 652.074 237.653 632.649 245.004C579.082 264.999 647.365 173.841 652.957 166.489C665.61 150.611 693.865 122.97 702.4 109.149Z" fill="white"/>
</g>
</g>
<defs>
<linearGradient id="paint0_linear" x1="683.814" y1="155.135" x2="767.18" y2="187.193" gradientUnits="userSpaceOnUse">
<stop stop-color="#919191"/>
<stop offset="1" stop-color="white"/>
</linearGradient>
<linearGradient id="paint1_linear" x1="681.685" y1="208.807" x2="732.154" y2="228.215" gradientUnits="userSpaceOnUse">
<stop stop-color="#990000"/>
<stop offset="1" stop-color="#E80000"/>
</linearGradient>
<linearGradient id="paint2_linear" x1="353.259" y1="326.636" x2="353.259" y2="61.1638" gradientUnits="userSpaceOnUse">
<stop stop-color="#1A1A1A"/>
<stop offset="0.4026" stop-color="#4A4A4C"/>
<stop offset="1" stop-color="#333333"/>
</linearGradient>
</defs>
</svg>
