<svg width="76" height="75" viewBox="0 0 76 75" fill="none" xmlns="http://www.w3.org/2000/svg">
<path fill-rule="evenodd" clip-rule="evenodd" d="M76 38C76 17.0132 58.9868 0 38 0C17.0132 0 0 17.0132 0 38H1C1 37.8331 1.00111 37.6664 1.00331 37.5C1.00552 37.6669 1.00884 37.8336 1.01325 38H4V23.3815C5.62128 19.6157 7.8499 16.1729 10.5625 13.1765V36.6094L32.6768 12H35.7275H40.6064H43.6572L65.7715 36.6094V13.5505C68.5219 16.6721 70.7542 20.2612 72.334 24.1832V38H74.9867C74.9912 37.8336 74.9945 37.667 74.9967 37.5C74.9989 37.6664 75 37.8331 75 38H76ZM24.0791 38H52.2548L55.3125 33.9775L38.167 14.7375L21.0215 33.9775L24.0791 38Z" fill="#FF8181"/>
<path fill-rule="evenodd" clip-rule="evenodd" d="M76 38C76 17.0132 58.9868 0 38 0C17.0132 0 0 17.0132 0 38H1C1 37.8331 1.00111 37.6664 1.00331 37.5C1.00552 37.6669 1.00884 37.8336 1.01325 38H4V23.3815C5.62128 19.6157 7.8499 16.1729 10.5625 13.1765V36.6094L32.6768 12H35.7275H40.6064H43.6572L65.7715 36.6094V13.5505C68.5219 16.6721 70.7542 20.2612 72.334 24.1832V38H74.9867C74.9912 37.8336 74.9945 37.667 74.9967 37.5C74.9989 37.6664 75 37.8331 75 38H76ZM24.0791 38H52.2548L55.3125 33.9775L38.167 14.7375L21.0215 33.9775L24.0791 38Z" fill="#FF8181"/>
<path fill-rule="evenodd" clip-rule="evenodd" d="M76 38C76 17.0132 58.9868 0 38 0C17.0132 0 0 17.0132 0 38H1C1 37.8331 1.00111 37.6664 1.00331 37.5C1.00552 37.6669 1.00884 37.8336 1.01325 38H4V23.3815C5.62128 19.6157 7.8499 16.1729 10.5625 13.1765V36.6094L32.6768 12H35.7275H40.6064H43.6572L65.7715 36.6094V13.5505C68.5219 16.6721 70.7542 20.2612 72.334 24.1832V38H74.9867C74.9912 37.8336 74.9945 37.667 74.9967 37.5C74.9989 37.6664 75 37.8331 75 38H76ZM24.0791 38H52.2548L55.3125 33.9775L38.167 14.7375L21.0215 33.9775L24.0791 38Z" fill="#FF8181"/>
<path fill-rule="evenodd" clip-rule="evenodd" d="M0 38C0.538003 58.5093 17.3326 74.97 37.9717 74.97C58.6108 74.97 75.4054 58.5093 75.9434 38H74.943H72.3074V50.7572C70.7299 54.6867 68.4973 58.2826 65.7449 61.4098V44.9492L59.6609 38.626L42.0712 61.704L42.118 61.7656H42.0242H34.2567H34.1629L34.2097 61.704L16.6199 38.626L10.5359 44.9492V61.7656H10.5157C7.81087 58.7707 5.58917 55.3311 3.97345 51.5696V38H1.00036H0ZM24.0526 38L38.1404 56.533L52.2283 38H24.0526Z" fill="#1FB0DE"/>
</svg>
