<svg width="89" height="76" viewBox="0 0 89 76" fill="none" xmlns="http://www.w3.org/2000/svg">
<circle cx="44" cy="37" r="37" fill="url(#paint0_linear)"/>
<g filter="url(#filter0_d)">
<path fill-rule="evenodd" clip-rule="evenodd" d="M10 20V20.0108L10.0373 19.9365C10.0244 19.9582 10.0119 19.9794 10 20ZM10 53.9892V54C10.0119 54.0206 10.0244 54.0418 10.0373 54.0635C10.0248 54.0387 10.0124 54.014 10 53.9892ZM16.5102 61.7656C13.8213 58.7828 11.6109 55.3601 10 51.6185V22.3815C11.6213 18.6157 13.8499 15.1729 16.5625 12.1765V36.6094L38.6768 12H41.7275H46.6064H49.6572L71.7715 36.6094V12.5505C74.5219 15.6721 76.7542 19.2612 78.334 23.1832V50.8168C76.7542 54.7388 74.5219 58.3279 71.7715 61.4495V44.9492L65.6875 38.626L48.0977 61.704L48.1445 61.7656H48.0508H40.2832H40.1895L40.2363 61.704L22.6465 38.626L16.5625 44.9492V61.7656H16.5102ZM27.0215 33.9775L44.167 14.7375L61.3125 33.9775L44.167 56.533L27.0215 33.9775Z" fill="white"/>
</g>
<defs>
<filter id="filter0_d" x="0" y="6" width="88.334" height="69.7656" filterUnits="userSpaceOnUse" color-interpolation-filters="sRGB">
<feFlood flood-opacity="0" result="BackgroundImageFix"/>
<feColorMatrix in="SourceAlpha" type="matrix" values="0 0 0 0 0 0 0 0 0 0 0 0 0 0 0 0 0 0 127 0"/>
<feOffset dy="4"/>
<feGaussianBlur stdDeviation="5"/>
<feColorMatrix type="matrix" values="0 0 0 0 0 0 0 0 0 0 0 0 0 0 0 0 0 0 0.25 0"/>
<feBlend mode="normal" in2="BackgroundImageFix" result="effect1_dropShadow"/>
<feBlend mode="normal" in="SourceGraphic" in2="effect1_dropShadow" result="shape"/>
</filter>
<linearGradient id="paint0_linear" x1="44" y1="0" x2="44" y2="74" gradientUnits="userSpaceOnUse">
<stop stop-color="#F56363"/>
<stop offset="1" stop-color="#E8549B"/>
</linearGradient>
</defs>
</svg>
