<svg width="96" height="95" viewBox="0 0 96 95" fill="none" xmlns="http://www.w3.org/2000/svg">
<ellipse cx="48" cy="45.5" rx="37" ry="37.5" fill="#F2F2F2"/>
<g filter="url(#filter0_dd)">
<path fill-rule="evenodd" clip-rule="evenodd" d="M86 46C86 25.0132 68.9868 8 48 8C27.0132 8 10 25.0132 10 46H11C11 45.833 11.0011 45.6663 11.0033 45.4998C11.0055 45.6667 11.0089 45.8335 11.0132 46H14V31.3815C15.6213 27.6157 17.8499 24.173 20.5625 21.1765V44.6094L42.6768 20H45.7275H50.6064H53.6572L75.7715 44.6094V21.5505C78.5219 24.6722 80.7542 28.2612 82.334 32.1832V46H84.9868C84.9911 45.8335 84.9945 45.6667 84.9967 45.4998C84.9989 45.6663 85 45.833 85 46H86ZM34.0792 46H62.2548L65.3125 41.9775L48.167 22.7374L31.0215 41.9775L34.0792 46Z" fill="#FF8181"/>
<path fill-rule="evenodd" clip-rule="evenodd" d="M86 46C86 25.0132 68.9868 8 48 8C27.0132 8 10 25.0132 10 46H11C11 45.833 11.0011 45.6663 11.0033 45.4998C11.0055 45.6667 11.0089 45.8335 11.0132 46H14V31.3815C15.6213 27.6157 17.8499 24.173 20.5625 21.1765V44.6094L42.6768 20H45.7275H50.6064H53.6572L75.7715 44.6094V21.5505C78.5219 24.6722 80.7542 28.2612 82.334 32.1832V46H84.9868C84.9911 45.8335 84.9945 45.6667 84.9967 45.4998C84.9989 45.6663 85 45.833 85 46H86ZM34.0792 46H62.2548L65.3125 41.9775L48.167 22.7374L31.0215 41.9775L34.0792 46Z" fill="#FF8181"/>
<path fill-rule="evenodd" clip-rule="evenodd" d="M86 46C86 25.0132 68.9868 8 48 8C27.0132 8 10 25.0132 10 46H11C11 45.833 11.0011 45.6663 11.0033 45.4998C11.0055 45.6667 11.0089 45.8335 11.0132 46H14V31.3815C15.6213 27.6157 17.8499 24.173 20.5625 21.1765V44.6094L42.6768 20H45.7275H50.6064H53.6572L75.7715 44.6094V21.5505C78.5219 24.6722 80.7542 28.2612 82.334 32.1832V46H84.9868C84.9911 45.8335 84.9945 45.6667 84.9967 45.4998C84.9989 45.6663 85 45.833 85 46H86ZM34.0792 46H62.2548L65.3125 41.9775L48.167 22.7374L31.0215 41.9775L34.0792 46Z" fill="#FF8181"/>
<path fill-rule="evenodd" clip-rule="evenodd" d="M10 46C10.538 66.5093 27.3326 82.97 47.9717 82.97C68.6108 82.97 85.4054 66.5093 85.9434 46H84.943H82.3074V58.7572C80.7299 62.6867 78.4973 66.2826 75.7449 69.4098V52.9492L69.6609 46.626L52.0712 69.704L52.118 69.7656H52.0242H44.2567H44.1629L44.2097 69.704L26.6199 46.626L20.5359 52.9492V69.7656H20.5157C17.8109 66.7707 15.5892 63.3311 13.9735 59.5696V46H11.0004H10ZM34.0526 46L48.1404 64.533L62.2283 46H34.0526Z" fill="#1FB0DE"/>
</g>
<defs>
<filter id="filter0_dd" x="0" y="0" width="96" height="94.97" filterUnits="userSpaceOnUse" color-interpolation-filters="sRGB">
<feFlood flood-opacity="0" result="BackgroundImageFix"/>
<feColorMatrix in="SourceAlpha" type="matrix" values="0 0 0 0 0 0 0 0 0 0 0 0 0 0 0 0 0 0 127 0"/>
<feOffset dy="2"/>
<feGaussianBlur stdDeviation="5"/>
<feColorMatrix type="matrix" values="0 0 0 0 0.121569 0 0 0 0 0.690196 0 0 0 0 0.870588 0 0 0 0.2 0"/>
<feBlend mode="normal" in2="BackgroundImageFix" result="effect1_dropShadow"/>
<feColorMatrix in="SourceAlpha" type="matrix" values="0 0 0 0 0 0 0 0 0 0 0 0 0 0 0 0 0 0 127 0"/>
<feOffset dy="4"/>
<feGaussianBlur stdDeviation="2"/>
<feColorMatrix type="matrix" values="0 0 0 0 1 0 0 0 0 0.505882 0 0 0 0 0.505882 0 0 0 0.2 0"/>
<feBlend mode="normal" in2="effect1_dropShadow" result="effect2_dropShadow"/>
<feBlend mode="normal" in="SourceGraphic" in2="effect2_dropShadow" result="shape"/>
</filter>
</defs>
</svg>
